<?xml version="1.0" encoding="utf-8"?>
<!-- Generator: Adobe Illustrator 16.0.0, SVG Export Plug-In . SVG Version: 6.00 Build 0)  -->
<!DOCTYPE svg PUBLIC "-//W3C//DTD SVG 1.1//EN" "http://www.w3.org/Graphics/SVG/1.1/DTD/svg11.dtd">
<svg version="1.1" id="Layer_1" xmlns="http://www.w3.org/2000/svg" xmlns:xlink="http://www.w3.org/1999/xlink" x="0px" y="0px"
	 width="1568px" height="1400px" viewBox="0 0 1568 1400" enable-background="new 0 0 1568 1400" xml:space="preserve">
<g>
	<g>
		<rect y="945" fill="#58ACB0" width="1568" height="455"/>
		<rect fill="#FFE1B8" width="1568" height="945"/>
	</g>
	<rect x="154" y="83.3" fill="#F0D4AD" width="1259.9" height="861.7"/>
	<rect x="998.9" y="124.3" fill="#A6D1FF" width="374" height="795.9"/>
	<rect x="594.5" y="124.3" fill="#A6D1FF" width="378.9" height="795.9"/>
	<rect x="195" y="124.3" fill="#A6D1FF" width="374" height="795.9"/>
	<polygon opacity="0.2" fill="#04D5FF" points="1339.4,739.5 1339.4,275.9 1214,275.9 1214,412.8 1107.1,412.8 1107.1,545 
		1051.5,545 1051.5,932 944.2,932 944.2,341.4 933.9,341.4 933.9,306 885.5,306 885.5,341.4 828.6,341.4 828.6,623.5 778.5,623.5 
		778.5,482.4 778.5,360.8 706,360.8 706,482.4 623.6,482.4 623.6,679.2 623.6,806.8 623.6,932 516.2,932 516.2,692.9 516.2,593.5 
		516.2,410.9 418.7,410.9 418.7,598.4 376.3,598.4 376.3,775.3 348.7,775.3 348.7,669.2 348.7,466.3 348.7,324.4 286.5,324.4 
		286.5,466.3 236.7,466.3 236.7,725.8 195,725.8 195,811.3 195,945 288.3,945 1372.4,945 1372.4,900.4 1372.4,818 1372.4,739.5 	"/>
	<path fill="#FFFFFF" d="M195,920.2V124.3h374v795.9H195z M594.5,920.2V124.3h378.9v795.9H594.5z M1373,920.2h-374V124.3h374V920.2z
		 M170.2,99.5V945h1227.5V99.5H170.2z"/>
	<rect x="1266.6" y="318.7" fill="#A6D1FF" width="41.8" height="51.3"/>
	<g>
		<polygon fill="#A6D1FF" points="999,818.6 1100.6,920.2 1279.7,920.2 999,639.5 		"/>
		<polygon fill="#A6D1FF" points="999,414.1 1373.1,788.2 1373.1,609.1 999,235 		"/>
		<polygon fill="#A6D1FF" points="1373.1,204.6 1292.8,124.3 1113.7,124.3 1373.1,383.7 		"/>
		<polygon fill="#A6D1FF" points="973.5,209.5 888.3,124.3 709.2,124.3 973.5,388.6 		"/>
		<polygon fill="#A6D1FF" points="594.6,235.1 594.6,414.2 973.5,793.1 973.5,614 		"/>
		<polygon fill="#A6D1FF" points="594.6,818.7 696.1,920.2 875.2,920.2 594.6,639.6 		"/>
		<polygon fill="#A6D1FF" points="195.1,823.7 291.6,920.2 470.7,920.2 195.1,644.6 		"/>
		<polygon fill="#A6D1FF" points="195.1,240.1 195.1,419.2 569.2,793.2 569.2,614.1 		"/>
		<polygon fill="#A6D1FF" points="569.2,209.7 483.8,124.3 304.7,124.3 569.2,388.7 		"/>
	</g>
	<path fill="#509DA1" d="M1149.2,1169c0-15.2-12.3-27.6-27.6-27.6H673.7c-15.2,0-27.6,12.3-27.6,27.6l0,0
		c0,15.2,12.3,27.6,27.6,27.6h447.9C1136.9,1196.6,1149.2,1184.3,1149.2,1169L1149.2,1169z"/>
	<path fill="#509DA1" d="M1327.9,1206.8c0-15.2-12.3-27.6-27.6-27.6H273.9c-15.2,0-27.6,12.3-27.6,27.6l0,0
		c0,15.2,12.3,27.6,27.6,27.6h1026.4C1315.5,1234.3,1327.9,1222,1327.9,1206.8L1327.9,1206.8z"/>
	<g>
		<g>
			<path fill="#8A888D" d="M1075.8,824.3v-25c11.5,0,20.8-9.3,20.8-20.8V653.8c0-11.5-9.3-20.8-20.8-20.8h-18.2v-25h18.2
				c25.2,0,45.7,20.5,45.7,45.7v124.8C1121.6,803.8,1101,824.3,1075.8,824.3z"/>
		</g>
		<path fill="#EB5E5E" d="M1057.6,778.6V467.9c0-18.4-14.9-33.3-33.3-33.3H770.6c-18.4,0-33.3,14.9-33.3,33.3v310.7H1057.6z"/>
		<path fill="#CC5252" d="M1029.9,778.6V467.9c0-3.1-2.5-5.5-5.6-5.5H770.6c-3.1,0-5.5,2.5-5.5,5.5v310.7H1029.9z"/>
		<path fill="#FA6464" d="M1140.5,701c0,17.4-14.1,31.4-31.4,31.4l0,0c-17.4,0-31.4-14.1-31.4-31.4v-22.2
			c0-17.4,14.1-31.4,31.4-31.4l0,0c17.4,0,31.4,14.1,31.4,31.4V701z"/>
		<g>
			<path fill="#8A888D" d="M719.1,824.3v-25c-11.5,0-20.8-9.3-20.8-20.8V653.8c0-11.5,9.3-20.8,20.8-20.8h18.2v-25h-18.2
				c-25.2,0-45.7,20.5-45.7,45.7v124.8C673.4,803.8,693.9,824.3,719.1,824.3z"/>
		</g>
		<path fill="#FA6464" d="M654.5,701c0,17.4,14.1,31.4,31.4,31.4l0,0c17.4,0,31.4-14.1,31.4-31.4v-22.2c0-17.4-14.1-31.4-31.4-31.4
			l0,0c-17.3,0-31.4,14.1-31.4,31.4V701z"/>
		<path fill="#EB5E5E" d="M998.9,524c0,5.4-4.3,9.7-9.7,9.7h-183c-5.4,0-9.7-4.3-9.7-9.7l0,0c0-5.4,4.3-9.7,9.7-9.7h183
			C994.5,514.3,998.9,518.6,998.9,524L998.9,524z"/>
		<path fill="#EB5E5E" d="M998.9,585.7c0,5.4-4.3,9.7-9.7,9.7h-183c-5.4,0-9.7-4.3-9.7-9.7l0,0c0-5.4,4.3-9.7,9.7-9.7h183
			C994.5,576,998.9,580.3,998.9,585.7L998.9,585.7z"/>
		<path fill="#EB5E5E" d="M998.9,647.4c0,5.4-4.3,9.7-9.7,9.7h-183c-5.4,0-9.7-4.3-9.7-9.7l0,0c0-5.4,4.3-9.7,9.7-9.7h183
			C994.5,637.7,998.9,642,998.9,647.4L998.9,647.4z"/>
		<path fill="#EB5E5E" d="M998.9,709c0,5.4-4.3,9.7-9.7,9.7h-183c-5.4,0-9.7-4.3-9.7-9.7l0,0c0-5.4,4.3-9.7,9.7-9.7h183
			C994.5,699.3,998.9,703.7,998.9,709L998.9,709z"/>
		<path fill="#FA6464" d="M1072.4,778.6h-14.6v48.1c0,18.4-14.9,33.3-33.3,33.3H770.9c-18.4,0-33.3-14.9-33.3-33.3v-48.1H723
			c-18.4,0-33.3,14.9-33.3,33.3v63.8c0,18.4,14.9,33.3,33.3,33.3h349.3c18.4,0,33.3-14.9,33.3-33.3v-63.8
			C1105.6,793.5,1090.7,778.6,1072.4,778.6z"/>
		<path fill="#EB5E5E" d="M770.9,859.9h253.7c18.4,0,33.3-14.9,33.3-33.3v-48.1H737.6v48.1C737.6,845,752.5,859.9,770.9,859.9z"/>
		<rect x="756.9" y="908.9" fill="#8A888D" width="281.1" height="21.2"/>
		<path fill="#6B696E" d="M853,930.1v8.1c0,11.9,9.7,21.5,21.5,21.5h45.8c11.9,0,21.5-9.7,21.5-21.5v-8.1H853z"/>
		<rect x="881.5" y="959.8" fill="#8A888D" width="32.5" height="88.7"/>
		<g>
			<path fill="#6B696E" d="M919.8,1068.1v-19.7h-22.1h0h-22.1v19.7c0,0-99.3,9.8-130.2,56.5l19.3,3.2c0,0,19.5-34,120.1-36.7v42.6
				h25.8v-42.6c100.7,2.7,120.1,36.7,120.1,36.7l19.3-3.2C1019.1,1077.9,919.8,1068.1,919.8,1068.1z"/>
			<path fill="#8A888D" d="M770.6,1141.5c0,14-11.3,25.3-25.3,25.3c-14,0-25.3-11.3-25.3-25.3c0-14,11.3-25.3,25.3-25.3
				C759.3,1116.2,770.6,1127.5,770.6,1141.5z"/>
			<path fill="#8A888D" d="M923,1141.5c0,14-11.3,25.3-25.3,25.3c-14,0-25.3-11.3-25.3-25.3c0-14,11.3-25.3,25.3-25.3
				C911.7,1116.2,923,1127.5,923,1141.5z"/>
			<path fill="#8A888D" d="M1024.8,1141.5c0,14,11.3,25.3,25.3,25.3c14,0,25.3-11.3,25.3-25.3c0-14-11.3-25.3-25.3-25.3
				C1036.1,1116.2,1024.8,1127.5,1024.8,1141.5z"/>
		</g>
	</g>
	<g>
		<g>
			<path fill="#FFFFFF" d="M1235,731.1v-62.6h-61.5v71.4h53.9C1227.4,739.8,1235,739.1,1235,731.1z"/>
			<path fill="#F0F0F0" d="M1235,668.4v62.6c0,8-7.6,8.8-7.6,8.8h-53.9v6.4h67.3v-77.8H1235z"/>
		</g>
		<g>
			<path fill="#FFFFFF" d="M1250.4,685.5h-9.6v7.3h9.6c4.9,0,8.9,4,8.9,8.9v11.1c0,4.9-4,8.9-8.9,8.9h-9.6v7.3h9.6
				c9,0,16.2-7.3,16.2-16.2v-11.1C1266.6,692.8,1259.3,685.5,1250.4,685.5z"/>
		</g>
	</g>
	<rect x="1266.6" y="395.6" fill="#A6D1FF" width="41.8" height="51.3"/>
	<rect x="1266.6" y="472.5" fill="#A6D1FF" width="41.8" height="51.3"/>
	<rect x="1266.6" y="549.4" fill="#A6D1FF" width="41.8" height="51.3"/>
	<rect x="446.7" y="446.9" fill="#A6D1FF" width="41.8" height="51.3"/>
	<rect x="446.7" y="523.8" fill="#A6D1FF" width="41.8" height="51.3"/>
	<rect x="270.3" y="523.8" fill="#A6D1FF" width="41.8" height="51.3"/>
	<rect x="665" y="523.8" fill="#A6D1FF" width="41.8" height="51.3"/>
	<rect x="446.7" y="600.7" fill="#A6D1FF" width="41.8" height="51.3"/>
	<rect x="270.3" y="689.9" fill="#A6D1FF" width="41.8" height="51.3"/>
	<rect x="270.3" y="766.8" fill="#A6D1FF" width="41.8" height="51.3"/>
	<rect x="270.3" y="843.7" fill="#A6D1FF" width="41.8" height="51.3"/>
	<rect x="1199" y="549.4" fill="#A6D1FF" width="41.8" height="51.3"/>
	<rect x="1131.5" y="472.5" fill="#A6D1FF" width="41.8" height="51.3"/>
	<polygon fill="#007EBF" points="291.2,629.8 291.2,688 504.8,688 504.8,675.8 303.5,675.8 303.5,641.9 504.8,641.9 504.8,629.8 	
		"/>
	<polygon fill="#FFD258" points="301.2,746.2 514.8,746.2 514.8,734.1 313.6,734.1 313.6,700.1 514.8,700.1 514.8,688 301.2,688 	
		"/>
	<polygon fill="#E6E6E6" points="504.8,651.7 504.8,641.9 303.5,641.9 303.5,675.8 312.9,675.8 312.9,651.7 	"/>
	<polygon fill="#E6E6E6" points="514.8,709.9 514.8,700.1 313.6,700.1 313.6,734.1 323,734.1 323,709.9 	"/>
	<rect x="312.9" y="651.7" fill="#FFFFFF" width="191.8" height="24.1"/>
	<rect x="323" y="709.9" fill="#FFFFFF" width="191.8" height="24.1"/>
	<g>
		<g>
			<rect x="308.8" y="1186.4" fill="#ADA785" width="54.5" height="20.3"/>
			<rect x="308.8" y="783.3" fill="#C2BB95" width="54.5" height="403.1"/>
			<rect x="1204.7" y="1186.4" fill="#ADA785" width="54.5" height="20.3"/>
			<rect x="1204.7" y="783.3" fill="#C2BB95" width="54.5" height="403.1"/>
		</g>
		<g>
			<polygon fill="#C7C099" points="363.3,801.3 363.3,830.8 1186,830.8 1181.4,802.3 			"/>
			<polygon fill="#ADA785" points="1204.7,783.3 363.3,783.3 363.3,801.3 1181.4,802.3 1186,830.8 1204.7,830.8 			"/>
		</g>
		<g>
			<polygon fill="#EBE2B5" points="1321.7,746.2 246.3,746.2 246.3,756.9 1321.7,763.8 			"/>
			<polygon fill="#D2CBA2" points="246.3,756.9 246.3,783.3 1321.7,783.3 1321.7,763.8 			"/>
		</g>
	</g>
	<g>
		<g>
			<polygon fill="#BCBEC0" points="563.6,561.9 563.6,728.9 841.6,561.9 			"/>
			<polygon fill="#ACAEB0" points="841.6,561.9 563.6,728.9 844.7,728.9 844.7,561.9 			"/>
		</g>
		<path fill="#E6E7E8" d="M844.7,557.7c0-4.1-3.3-7.4-7.4-7.4H571c-4.1,0-7.4,3.3-7.4,7.4v4.2h281.1V557.7z"/>
		<path fill="#E6E7E8" d="M728.5,645.4c0,14.4-11.6,26-26,26c-14.4,0-26-11.6-26-26c0-14.4,11.6-26,26-26
			C716.9,619.4,728.5,631.1,728.5,645.4z"/>
		<g>
			<path fill="#CDCECF" d="M552.9,739.4c2.1,4,6.2,6.8,11.1,6.8h282.8c4.8,0,9-2.8,11.1-6.8H552.9z"/>
			<path fill="#E6E7E8" d="M859.2,733.8v-4.8H551.5v4.8c0,2,0.5,4,1.4,5.7h304.9C858.7,737.7,859.2,735.8,859.2,733.8z"/>
		</g>
	</g>
	<g>
		<g>
			<rect x="434.2" fill="#453E3E" width="5.4" height="228.4"/>
		</g>
		<g>
			<path fill="#4B4545" d="M436.5,243.6h-6.6c-39.8,0-72,32.2-72,72v68h114.3v-74.6C472.2,271.4,449.2,251.6,436.5,243.6z"/>
			<path fill="#453E3E" d="M515.9,315.6c0-39.8-32.2-72-72-72h-7.4c12.7,8,35.7,27.8,35.7,65.5v74.6h43.8V315.6z"/>
		</g>
		<g>
			<polygon fill="#D1D3D4" points="468.2,228.4 401.7,228.4 401.7,245.2 465.2,241.8 			"/>
			<polygon fill="#AEAFB0" points="468.2,228.4 465.2,241.8 401.7,245.2 401.7,249.9 472.2,249.9 472.2,228.4 			"/>
		</g>
	</g>
	<g>
		<g>
			<rect x="1127.8" fill="#453E3E" width="5.4" height="228.4"/>
		</g>
		<g>
			<path fill="#4B4545" d="M1130.1,243.6h-6.6c-39.8,0-72,32.2-72,72v68h114.3v-74.6C1165.7,271.4,1142.8,251.6,1130.1,243.6z"/>
			<path fill="#453E3E" d="M1209.5,315.6c0-39.8-32.2-72-72-72h-7.4c12.7,8,35.7,27.8,35.7,65.5v74.6h43.8V315.6z"/>
		</g>
		<g>
			<polygon fill="#D1D3D4" points="1161.7,228.4 1095.2,228.4 1095.2,245.2 1158.8,241.8 			"/>
			<polygon fill="#AEAFB0" points="1161.7,228.4 1158.8,241.8 1095.2,245.2 1095.2,249.9 1165.7,249.9 1165.7,228.4 			"/>
		</g>
	</g>
	<g>
		<g>
			<rect x="781" fill="#453E3E" width="5.4" height="191.2"/>
		</g>
		<g>
			<path fill="#4B4545" d="M783.3,206.3h-6.6c-39.8,0-72,32.2-72,72v68h114.3v-74.6C818.9,234.1,796,214.4,783.3,206.3z"/>
			<path fill="#453E3E" d="M862.7,278.4c0-39.8-32.2-72-72-72h-7.4c12.7,8,35.7,27.8,35.7,65.5v74.6h43.8V278.4z"/>
		</g>
		<g>
			<polygon fill="#D1D3D4" points="815,191.2 748.5,191.2 748.5,207.9 812,204.6 			"/>
			<polygon fill="#AEAFB0" points="815,191.2 812,204.6 748.5,207.9 748.5,212.6 818.9,212.6 818.9,191.2 			"/>
		</g>
	</g>
	<path fill="#509DA1" d="M881.5,1318.7c0,14.5,11.8,26.3,26.3,26.3h506.5c14.5,0,26.3-11.8,26.3-26.3l0,0
		c0-14.5-11.8-26.3-26.3-26.3H907.8C893.3,1292.4,881.5,1304.2,881.5,1318.7L881.5,1318.7z"/>
	<path fill="#509DA1" d="M685.9,1318.7c0,14.5,11.8,26.3,26.3,26.3h77.2c14.5,0,26.3-11.8,26.3-26.3l0,0c0-14.5-11.8-26.3-26.3-26.3
		h-77.2C697.7,1292.4,685.9,1304.2,685.9,1318.7L685.9,1318.7z"/>
</g>
</svg>
